<svg xmlns="http://www.w3.org/2000/svg" width="342.993" height="312.835" viewBox="0 0 342.993 312.835">
  <g id="Symbol_1_1" data-name="Symbol 1 – 1" transform="translate(-234 -321)">
    <path id="sass-original" d="M1.219,46.822a4.217,4.217,0,0,0,.246,1.232,15.144,15.144,0,0,0,3.282,5.9,38.9,38.9,0,0,0,7.277,6.385c2.276,1.636,4.6,3.235,6.883,4.859.392.279.763.6,1.189.941-.366.2-.671.372-.988.533a52.872,52.872,0,0,0-8.59,5.321,17.57,17.57,0,0,0-4.27,4.322c-1.771,2.8-2.4,5.776-1.078,8.958a5.288,5.288,0,0,0,1.8,2.325,2.665,2.665,0,0,0,.885.457c.806.19,1.627.314,2.443.464l2.31,0a14.372,14.372,0,0,0,6.981-2.553,15.319,15.319,0,0,0,6.448-9.206,16.249,16.249,0,0,0-.1-8.494c-.075-.262-.171-.519-.27-.772s-.216-.5-.353-.816l5.237-3.011.078.067c-.1.312-.2.622-.283.937a21.21,21.21,0,0,0-.887,6.944A13.325,13.325,0,0,0,31.8,78.577a3.378,3.378,0,0,0,5.289.057A12.2,12.2,0,0,0,38.3,76.72c.854-1.763,1.644-3.558,2.46-5.34l.142-.326c-.059.844-.127,1.585-.158,2.327a8.868,8.868,0,0,0,.415,3.412,2.356,2.356,0,0,0,2,1.772,2.509,2.509,0,0,0,1.871-.682,7.909,7.909,0,0,0,2.05-2.436c1.448-2.659,2.935-5.3,4.247-8.028,1.42-2.948,2.661-5.983,3.98-8.981l.218-.532c.312,1.224.529,2.423.928,3.558a33.623,33.623,0,0,0,1.666,3.852,1.152,1.152,0,0,1-.149,1.468c-1.718,2.072-3.407,4.168-5.1,6.263a14.069,14.069,0,0,0-1.058,1.438,2.819,2.819,0,0,0-.366,1.039,1.323,1.323,0,0,0,1.053,1.5,7.358,7.358,0,0,0,2.062.147,12.08,12.08,0,0,0,6.394-2.4A6.7,6.7,0,0,0,63.6,67.531a16.812,16.812,0,0,0-.721-2.341.865.865,0,0,1,.094-.912,74.525,74.525,0,0,0,5.2-8.811A1.816,1.816,0,0,1,68.4,55.1a22.881,22.881,0,0,0,2.627,7.458c-.695.669-1.382,1.276-2,1.945a13.41,13.41,0,0,0-3.178,5.023,5.934,5.934,0,0,0-.353,2.593,2.185,2.185,0,0,0,2.7,1.983,12.264,12.264,0,0,0,7.321-4.513,5.933,5.933,0,0,0,.838-5.417c-.143-.524-.313-1.04-.5-1.641.724-.225,1.43-.494,2.161-.661a19.151,19.151,0,0,1,11.2.655,8.451,8.451,0,0,1,4.879,4.243A4.894,4.894,0,0,1,92.22,73.41a4.16,4.16,0,0,0-.673.461.662.662,0,0,0-.156.51c.016.094.264.211.406.209a3.713,3.713,0,0,0,2.065-.854,6.359,6.359,0,0,0,2.935-4.43l.048-.143-.059-1.241c-.024-.072.018-.142.012-.2a9.735,9.735,0,0,0-3.97-6.617,14.483,14.483,0,0,0-8.568-2.885,19.346,19.346,0,0,0-7.437,1.145c-.683.248-1.36.541-2.047.817-.092-.167-.191-.327-.273-.492a13.919,13.919,0,0,1-1.749-4.48,10.029,10.029,0,0,1-.019-3.513c.269-1.119.619-2.219.949-3.322a.809.809,0,0,0-.492-1.142,2.174,2.174,0,0,0-.6-.2,9.22,9.22,0,0,0-3.938.292,1.128,1.128,0,0,0-.89.895c-.058.29-.176.568-.258.855a21.373,21.373,0,0,1-1.122,3.538c-1.366,2.845-2.926,5.582-4.523,8.3-.173.293-.355.581-.573.937A12.277,12.277,0,0,1,59.95,58.4a10.617,10.617,0,0,1-.019-4.173c.258-1.033.6-2.047.906-3.066a.71.71,0,0,0-.359-.994,2.114,2.114,0,0,0-.722-.28,8.868,8.868,0,0,0-4.078.334,1.1,1.1,0,0,0-.757.828,31.928,31.928,0,0,1-1.21,3.743c-2.113,4.844-4.286,9.663-6.458,14.481-.453,1.006-.984,1.977-1.5,2.957a6.867,6.867,0,0,1-.48.7.571.571,0,0,1-.179-.363,10.028,10.028,0,0,1,.048-1.855c.357-1.811.768-3.612,1.2-5.407.358-1.482.775-2.951,1.171-4.423a1.388,1.388,0,0,0-.219-1.368,2.045,2.045,0,0,0-2.575-.312l-.326.184.063-.526a8.187,8.187,0,0,0-.123-3.359,2.673,2.673,0,0,0-2.807-2.135,6.03,6.03,0,0,0-1.99.379,15.05,15.05,0,0,0-6.311,5,1.974,1.974,0,0,1-.577.5c-2.2,1.222-4.414,2.428-6.623,3.639l-2.459,1.347c-.66-.629-1.259-1.282-1.939-1.836-2.077-1.694-4.187-3.346-6.279-5.021a24.748,24.748,0,0,1-5.024-5A8.944,8.944,0,0,1,8.588,47.5a11.432,11.432,0,0,1,1.746-6.369,24.432,24.432,0,0,1,5.8-6.342,53.7,53.7,0,0,1,7.622-5.056,57.5,57.5,0,0,1,11.689-5.159,32.31,32.31,0,0,1,12.921-1.469,13.276,13.276,0,0,1,4.971,1.443,5.129,5.129,0,0,1,2.611,2.83,7.077,7.077,0,0,1,.123,3.964,15.13,15.13,0,0,1-3.957,6.893,26.739,26.739,0,0,1-10.93,6.924,30.068,30.068,0,0,1-7.437,1.586,14.006,14.006,0,0,1-6.082-.733,7.911,7.911,0,0,1-3.35-2.275c-.163-.19-.372-.4-.676-.219a.577.577,0,0,0-.251.746,7.3,7.3,0,0,0,.58,1.4,7.974,7.974,0,0,0,2.653,2.512,12.979,12.979,0,0,0,6.6,1.81,33.181,33.181,0,0,0,10.4-1.325,25.512,25.512,0,0,0,12.479-7.528,19.168,19.168,0,0,0,5.27-10.982,10.63,10.63,0,0,0-.993-6.05A10.937,10.937,0,0,0,55.6,19.44,20.2,20.2,0,0,0,46.206,17H42.924A33.978,33.978,0,0,0,31.39,19.494a79.227,79.227,0,0,0-8.277,3.582,53.515,53.515,0,0,0-15.777,11.3,23.562,23.562,0,0,0-5.2,8.218c-.318.919-.619,1.9-.846,2.853m21.2,27.429a12.106,12.106,0,0,1-4.309,8.379,9.8,9.8,0,0,1-4.929,2.46,3.617,3.617,0,0,1-2.052-.143,2.094,2.094,0,0,1-1.179-2.143,7.754,7.754,0,0,1,1.158-3.95,14.119,14.119,0,0,1,3.611-3.965,55.336,55.336,0,0,1,7.059-4.756l.185-.076a12.389,12.389,0,0,1,.455,4.194Zm19.161-14.76a25.623,25.623,0,0,1-.72,3.221,94.955,94.955,0,0,1-4.023,10.642,18.358,18.358,0,0,1-1.046,1.841,1.286,1.286,0,0,1-.216.254c-.44.435-.858.412-1.08-.157a11.992,11.992,0,0,1-.555-2.069,10.962,10.962,0,0,1-.1-1.445,18.109,18.109,0,0,1,2.845-9.429,8.816,8.816,0,0,1,2.74-3.088,4.775,4.775,0,0,1,1.215-.538c.647-.182,1.045.117.938.766ZM54.722,74.768l4.7-5.486C59.616,71.32,56.153,75.387,54.722,74.768Zm15.006-3.692c-.332.19-.694.327-1.034.5-.312.161-.414,0-.423-.27a1.817,1.817,0,0,1,.071-.549,11.811,11.811,0,0,1,3.539-5.7L72,65a5.033,5.033,0,0,1-2.274,6.079Z" transform="translate(232.781 305)" fill="#222426" fill-rule="evenodd"/>
    <path id="php-plain" d="M49,33.039C23.544,33.039,2.906,43.5,2.906,56.4S23.544,79.757,49,79.757,95.093,69.3,95.093,56.4,74.456,33.039,49,33.039ZM37.006,60.949a9.011,9.011,0,0,1-3.667,1.891,18.056,18.056,0,0,1-5.139.348H23.483l-1.308,7.545H16.667l4.915-25.652H32.175c3.187,0,5.511.917,6.973,2.589s1.9,4.047,1.318,7.045a11.1,11.1,0,0,1-3.46,6.234Zm16.079,2.239,2.174-10.879a3.226,3.226,0,0,0-.272-2.682,3.793,3.793,0,0,0-2.743-.773H47.875L45.06,63.188H39.594l4.915-24.9h5.465l-1.307,6.79h4.869c3.064,0,5.176.615,6.339,1.683s1.511,2.532,1.046,4.925l-2.287,11.5Zm30.374-8.433A10.99,10.99,0,0,1,80,60.949a9.016,9.016,0,0,1-3.667,1.891,18.059,18.059,0,0,1-5.139.348H66.476L65.17,70.733H59.661l4.915-25.652H75.169c3.187,0,5.511.917,6.972,2.589S84.041,51.758,83.459,54.755Zm-10.377-5.9H69.309L67.251,59.416H70.6c2.22,0,3.875-.219,4.961-1.056a6.386,6.386,0,0,0,2.2-4.09c.365-1.879.2-3.345-.5-4.118s-2.093-1.3-4.186-1.3Zm-42.994,0H26.314L24.257,59.416h3.351c2.22,0,3.875-.219,4.962-1.056a6.386,6.386,0,0,0,2.2-4.09c.365-1.879.2-3.345-.5-4.118s-2.091-1.3-4.184-1.3Z" transform="translate(367.094 305.961)" fill="#222426"/>
    <path id="photoshop-line" d="M77.342.723C55.257.716,33.272.717,11.187.717c-3.159,0-6.372,0-9.531.007A1.589,1.589,0,0,0,1,.867V77.709H77.82V.867c0-.051-.252-.144-.478-.144ZM69.577,70.19q-29.851-.035-59.7-.018c-.961,0-.957,0-.957-.992V9.554c0-.98-.009-.739.962-.739H69.513c1,0,.991-.241.991.787V39.377q0,14.925.022,29.849c0,.758-.176.963-.949.963ZM35.032,24.45c-4.065-.953-8.158-.483-12.245-.065-.868.089-1.033.46-1.031,1.23.026,9.271-.027,18.543-.027,27.814v.5h5.487V43.042a20.339,20.339,0,0,0,8.565-.8c4.371-1.56,6.555-4.945,6.319-9.888C41.91,28.363,39.4,25.474,35.032,24.45ZM33.842,38.073a10.36,10.36,0,0,1-6.1.645.655.655,0,0,1-.413-.478c-.024-3.25-.018-6.5-.018-9.839a13.681,13.681,0,0,1,5.525.011,4.633,4.633,0,0,1,3.781,4.217,5.142,5.142,0,0,1-2.775,5.444Zm20.3,4.332c-.9-.491-1.878-.821-2.808-1.252-.86-.4-1.727-.79-2.545-1.266a1.733,1.733,0,0,1-.829-1.592A2.16,2.16,0,0,1,50.1,36.1a11.621,11.621,0,0,1,3.045.207,17.287,17.287,0,0,1,2.489.851l1.077-3.822a12.988,12.988,0,0,0-6.271-1.286,9.4,9.4,0,0,0-5.092,1.585c-2.892,1.969-4.3,7.2.031,10.009a30.933,30.933,0,0,0,3.567,1.732c.743.355,1.518.658,2.22,1.08a2.213,2.213,0,0,1,1.033,2.4,1.989,1.989,0,0,1-1.729,1.752,9.68,9.68,0,0,1-3.12.088A40.135,40.135,0,0,1,43.1,49.493c-.26.969-.507,2.042-.844,3.085-.185.572-.076.854.485,1.078a14.605,14.605,0,0,0,10.415.437,6.338,6.338,0,0,0,.993-11.688Z" transform="translate(233 433.283)" fill="#222426" fill-rule="evenodd"/>
    <path id="mysql-plain" d="M91.961,90.369l-1.912-1.855a30.529,30.529,0,0,0-6.59-6.276c-1.951-1.4-6.331-3.292-7.145-5.562l-.15-.143a31.273,31.273,0,0,0,4.276-1c2.145-.575,3.915-.426,6.13-1,1-.285,2.119-.571,2.85-.856v-.57A16.915,16.915,0,0,0,86.425,69.4a90.852,90.852,0,0,0-10.2-7.7c-1.99-1.256-4.416-2.072-6.525-3.137-.71-.359-1.939-.545-2.408-1.142a30.124,30.124,0,0,1-2.557-4.849c-1.79-3.448-3.545-7.213-5.131-10.841-1.082-2.474-1.786-4.912-3.135-7.132C49.994,23.951,43.024,17.525,32.226,11.208c-2.3-1.344-5.065-1.874-7.989-2.568l-4.705-.286c-.958-.4-1.955-1.571-2.852-2.14C13.1,3.954,3.925-.961,1.275,5.5c-1.673,4.08,2.5,8.059,3.993,10.127a30.4,30.4,0,0,1,3.138,4.706c.493,1.072.577,2.148,1,3.281a75.177,75.177,0,0,0,3.28,8.414,29.66,29.66,0,0,0,2.282,3.851c.525.717,1.425,1.033,1.568,2.14-.88,1.232-.931,3.146-1.425,4.708-2.23,7.028-1.387,15.765,1.855,20.967.994,1.6,3.338,5.023,6.561,3.708,2.819-1.148,2.358-4.706,3.164-7.845.182-.711-.135-1.234.6-1.711v.143c.731,1.711,1.542,3.423,2.4,5.134a33.983,33.983,0,0,0,7.893,8.417c1.482,1.119,2.865,3.053,4.327,3.708v-.074h.162c-.371-.731-.952-.853-1.425-1.319a32.674,32.674,0,0,1-3.28-3.726,86.858,86.858,0,0,1-6.989-11.42c-1-1.92-1.869-4.042-2.711-5.995-.324-.753-.32-1.895-1-2.284-.923,1.431-2.282,2.588-3,4.278-1.141,2.7-1.288,6-1.711,9.413-.251.089-.139.028-.286.142-1.987-.479-2.684-2.523-3.423-4.278A26.961,26.961,0,0,1,17.676,43.3c.425-1.322,2.347-5.483,1.569-6.7-.371-1.217-1.6-1.923-2.281-2.853a22.45,22.45,0,0,1-2.283-3.994c-1.528-3.458-2.241-7.342-3.851-10.839A31.691,31.691,0,0,0,7.691,14.06C6.509,12.413,5.185,11.2,4.267,9.21,3.942,8.5,3.5,7.369,3.982,6.642a1.13,1.13,0,0,1,.856-.855c.828-.638,3.131.212,3.993.569a34.71,34.71,0,0,1,6.134,3.111c.929.617,1.871,1.382,2.995,2.113h1.284a21.976,21.976,0,0,1,6.134.74,37.147,37.147,0,0,1,8.985,4.293A55.664,55.664,0,0,1,53.9,38.014c.74,1.42,1.06,2.777,1.711,4.282,1.314,3.036,2.971,6.161,4.278,9.129a42.617,42.617,0,0,0,4.422,8.417c.97,1.3,4.716,1.991,6.418,2.711a37.719,37.719,0,0,1,4.279,1.711c2.159,1.3,4.25,2.854,6.276,4.28,1.012.712,4.123,2.276,4.278,3.566-5.017-.137-8.848.33-12.123,1.711-.931.393-2.416.4-2.568,1.569.512.536.591,1.337,1,2a15.732,15.732,0,0,0,3.281,3.851c1.288.972,2.614,2.011,3.994,2.852,2.455,1.5,5.2,2.352,7.559,3.851,1.393.884,2.893,2,4.251,2.995.673.493.651,1.26,2.113,1.569v-.142C92.343,91.782,92.382,90.979,91.961,90.369Zm-70.148-72.6a9.961,9.961,0,0,0-2.569.284v.107h.145c.5.731,1.38,1.7,2,2.586l1.427,3,.141-.137a3.478,3.478,0,0,0,1.284-3.137c-.353-.372-.406-.838-.712-1.282-.408-.591-1.2-.927-1.712-1.425Z" transform="translate(369.114 426.71)" fill="#222426"/>
    <g id="laravel-plain" transform="translate(502 319.281)">
      <path id="Path_4" data-name="Path 4" d="M10.338,1.719a10.257,10.257,0,0,0-1.949.219A9.456,9.456,0,0,0,1.475,9.319c.1.176.207.362.319.55.714,1.194,1.429,2.381,2.146,3.574l1.882,3.13q.869,1.447,1.735,2.894l2.7,4.506L12.1,27.046q1.342,2.237,2.686,4.474l3.287,5.492q1.421,2.373,2.846,4.743l.127.184a.616.616,0,0,0,.361-.021l3.752-.9,6.085-1.453,3.177-.76q3.076-.735,6.152-1.47l6.219-1.49,3.144-.752,6.085-1.45,6.627-1.578.358-.1-.1-.194L61.1,29.221l-1.786-2.529-1.911-2.7-1.826-2.586-1.81-2.556L51.9,16.211q-.915-1.292-1.832-2.583L49.1,12.265a2.505,2.505,0,0,1-.344-.679,1.093,1.093,0,0,1,.373-1.278,2.088,2.088,0,0,1,.761-.41c.389-.114.781-.224,1.178-.3.8-.151,1.6-.278,2.4-.411l2.71-.442c.571-.094,1.142-.193,1.714-.29q1.165-.2,2.33-.393,1.131-.19,2.263-.376l2.469-.4,1.714-.288q.978-.164,1.954-.324c.812-.132,1.624-.266,2.436-.393A2.987,2.987,0,0,1,73.5,6.8l.423.295c.042-.1-.019-.15-.047-.206a9.745,9.745,0,0,0-5.8-4.988,9.525,9.525,0,0,0-2.214-.179M33.05,75.14c-.036,0-.069-.264-.11-.333-.879-1.5-1.768-3.111-2.636-4.616q-1.641-2.846-3.257-5.708-1.727-3.057-3.436-6.125-1.63-2.913-3.252-5.83Q19.38,50.764,18.4,49l-.173-.269-.318.063q-.942.244-1.882.491c-.873.23-1.746.464-2.62.692q-2.942.766-5.885,1.527c-1.995.518-4.074,1.037-6.069,1.553-.121.031.128.042-.458.062V65.509c.241.384.219.2.234.33.046.367.121.737.186,1.1a9.352,9.352,0,0,0,1.57,3.722,9.679,9.679,0,0,0,4.564,3.564,8.822,8.822,0,0,0,2.088.527l.727.192" transform="translate(0 0)" fill="#222426" fill-rule="evenodd"/>
      <path id="Path_5" data-name="Path 5" d="M3.33,52.233l6.926-1.646c1.014-.24,2.028-.478,3.042-.719.507-.121,1.015-.236,1.518-.372.448-.121.5-.269.273-.673-.333-.584-.672-1.164-1.009-1.746l-2.968-5.11L8.146,36.857q-1.509-2.6-3.02-5.2L2.54,27.209c-.373-.641-.825-1.284-1.2-1.925-.07-.117.246-.256-.34-.318V52.742c0-.019.265-.035.355-.056l1.975-.453ZM74.387,72.087q-1.357.483-2.715.97l-6.18,2.216c-1.145.411-2.287.826-3.432,1.235q-3.5,1.249-7,2.494c-1.353.482-2.706,1.077-4.058,1.561-.37.133-.735.537-1.1.537H65.423l.334-.192a8.69,8.69,0,0,0,1.172-.205,9.582,9.582,0,0,0,4.285-1.988,9.745,9.745,0,0,0,2.38-2.8,9.977,9.977,0,0,0,1.2-3.575A.4.4,0,0,0,74.747,72,.88.88,0,0,0,74.387,72.087ZM73.054,51.241q-1.027-1.4-2.054-2.808-1.414-1.94-2.826-3.882c-.383-.525-.771-1.046-1.144-1.577a.344.344,0,0,0-.416-.155l-.1.029-5.2,1.262-3.107.754-6.078,1.476q-3.006.731-6.012,1.46l-6.248,1.513-6.146,1.5L27.776,52.25q-1.571.382-3.141.763a1.131,1.131,0,0,0-.484.171l.14.267Q25.607,55.725,26.926,58q1.494,2.572,2.991,5.142,1.647,2.824,3.3,5.647c.632,1.081,1.261,2.164,1.9,3.242q1.063,1.8,2.141,3.584c.216.356.462.7.709,1.031a2.133,2.133,0,0,0,.613.561,1.056,1.056,0,0,0,.8.134,4.116,4.116,0,0,0,.432-.131l.522-.193q2.846-.973,5.691-1.944,2.221-.756,4.444-1.507,2.206-.748,4.413-1.491l4.38-1.479,4.479-1.515q2.748-.933,5.5-1.867,2.65-.9,5.3-1.789a.545.545,0,0,0,.318-.171l.011-.257q0-5.5,0-11a.809.809,0,0,0-.169-.512c-.556-.744-1.1-1.5-1.648-2.243ZM72.75,16.7a1.4,1.4,0,0,0-1.578-.519c-.28.073-.567.12-.852.172q-1.4.257-2.8.509-2.052.373-4.1.745-1.625.292-3.25.576l-4.347.761a4.045,4.045,0,0,0-.542.12c-.256.082-.33.243-.213.483a3.725,3.725,0,0,0,.343.562q1.348,1.858,2.705,3.711,1.867,2.557,3.735,5.113l3.163,4.324q1.243,1.7,2.487,3.4l.164.2,7.191-1.777.017-.373q0-7.482,0-14.964a.857.857,0,0,0-.192-.572c-.6-.764-1.2-1.536-1.8-2.3Zm1.935,24.169c-1.088.261-2.18.51-3.294.8.118.209,3.173,4.334,3.351,4.53l.111.062.012-.251V44.277c0-1.007,0-2.015,0-3.022a.6.6,0,0,0-.05-.379Z" transform="translate(0 -5.961)" fill="#222426" fill-rule="evenodd"/>
    </g>
    <path id="javascript-plain" d="M2,1V73.993H74.993V1ZM40.61,63.2a8.631,8.631,0,0,1-5.517,4.322,13.271,13.271,0,0,1-9.77-1.2,10.987,10.987,0,0,1-4.03-4.614l5.559-3.4a3.518,3.518,0,0,1,.389.625,5.87,5.87,0,0,0,2.522,2.619c1.181.4,3.773.66,4.774-1.417.611-1.057.417-4.454.417-8.213,0-5.907.027-11.789.027-17.628h6.837c0,6.423.035,12.507,0,18.775.015,3.842.348,7.268-1.209,10.138Zm28.364-1.932C66.6,69.4,53.347,69.659,48.051,64.288A12.355,12.355,0,0,1,45.564,60.9c2.814-1.619,2.814-1.619,5.552-3.2,1.487,2.286,2.862,3.543,5.337,4.058,3.357.41,6.733-.743,5.976-4.308-.778-2.912-6.873-3.62-11.021-6.733-4.211-2.828-5.2-9.7-1.737-13.626a9.769,9.769,0,0,1,5.184-3.057l2.154-.279c4.135-.084,6.719,1.008,8.617,3.127a13.647,13.647,0,0,1,1.765,2.362c-2.2,1.4-2.2,1.39-5.351,3.433a5.091,5.091,0,0,0-2.974-2.759c-1.835-.556-4.148.048-4.628,1.987a3.774,3.774,0,0,0,.133,2.14c.743,1.7,3.238,2.432,5.476,3.46,6.441,2.613,8.617,5.414,9.152,8.748a10.028,10.028,0,0,1-.222,5.011Z" transform="translate(502 437)" fill="#222426"/>
    <path id="html5-plain" d="M9.032,2l6.255,70.082,28.069,7.753L71.5,72.091,77.765,2H9.032ZM64.755,18.592l-.392,4.484-.173,2.056H31.263l.786,8.753H63.407l-.21,2.17L61.176,58.638l-.149,1.419L43.4,64.9h0l-.021.011L25.761,60.273l-1.2-13.258H33.2l.612,6.827,9.558,2.551H43.4v-.341L53,53.629l1-10.991H24.18L22.065,18.808l-.206-2.428h43.1l-.206,2.213Z" transform="translate(228.968 549)" fill="#222426"/>
    <path id="git-plain" d="M86.076,40.433,48.162,2.521a5.593,5.593,0,0,0-7.909,0l-7.872,7.874,9.987,9.987a6.64,6.64,0,0,1,8.409,8.466L60.4,38.474a6.645,6.645,0,1,1-3.986,3.751l-8.976-8.976V56.871a6.625,6.625,0,1,1-7.863,1.257,7.087,7.087,0,0,1,1.964-1.451V32.836a7.03,7.03,0,0,1-1.965-1.452,6.619,6.619,0,0,1-1.326-7.275l-9.791-9.846-25.971,26A5.6,5.6,0,0,0,2.5,48.169L40.423,86.081a5.6,5.6,0,0,0,7.913,0L86.074,48.345a5.6,5.6,0,0,0,0-7.911Z" transform="translate(372.142 546.116)" fill="#222426"/>
    <path id="c-plain" d="M77.642,21.895l.189-.126a4.249,4.249,0,0,0-1.51-1.636L45.929,2.64a3.731,3.731,0,0,0-1.951-.44,4.464,4.464,0,0,0-1.951.44L11.825,20.2A4.324,4.324,0,0,0,10,23.594V58.641a3.909,3.909,0,0,0,.566,2.139l-.126.063a3.614,3.614,0,0,0,1.2,1.2L41.965,79.595a3.731,3.731,0,0,0,1.951.44,4.464,4.464,0,0,0,1.951-.44l30.2-17.555a4.324,4.324,0,0,0,1.825-3.4V23.531a3.079,3.079,0,0,0-.252-1.636ZM43.978,56.5a15.422,15.422,0,0,0,13.4-7.8L65.5,53.482a24.862,24.862,0,1,1,.063-24.666l-8.18,4.719A15.4,15.4,0,1,0,43.978,56.5Z" transform="translate(499 548.8)" fill="#222426"/>
  </g>
</svg>
